<svg width="151" height="89" viewBox="0 0 151 89" fill="none" xmlns="http://www.w3.org/2000/svg" className="mx-auto cursor-pointer min-h-[144px] min-w-[144px]">
<path d="M51.5 66H45.3125V42.5625H51.5V51.7812H59.6719V42.5625H65.8594V66H59.6719V57.1719H51.5V66ZM89.2812 66H82.4375L77.9688 58.25H75.1875V66H69V42.5625H78.4375C80.4688 42.5625 82.1979 42.8698 83.625 43.4844C85.0521 44.099 86.1406 44.9948 86.8906 46.1719C87.651 47.3385 88.0312 48.75 88.0312 50.4062C88.0312 51.9583 87.6979 53.2969 87.0312 54.4219C86.3646 55.5469 85.401 56.4323 84.1406 57.0781L89.2812 66ZM75.1875 53.4844H77.9531C79.1927 53.4844 80.125 53.2552 80.75 52.7969C81.3854 52.3281 81.7031 51.6354 81.7031 50.7188C81.7031 49.8021 81.3854 49.1146 80.75 48.6562C80.125 48.1875 79.1927 47.9531 77.9531 47.9531H75.1875V53.4844ZM97.3438 42.5625V66H91.1562V42.5625H97.3438ZM114.703 66H108.219L99.0625 42.5625H105.547L111.453 58.8125L117.359 42.5625H123.844L114.703 66ZM125.562 66V42.5625H141.188V47.9531H131.75V51.5781H140.562V56.9688H131.75V60.6094H141.344V66H125.562ZM146.656 66.3125C145.906 66.3125 145.302 66.0833 144.844 65.625C144.385 65.1667 144.156 64.5625 144.156 63.8125C144.156 63.0625 144.385 62.4583 144.844 62C145.302 61.5417 145.906 61.3125 146.656 61.3125C147.406 61.3125 148.01 61.5417 148.469 62C148.927 62.4583 149.156 63.0625 149.156 63.8125C149.156 64.5625 148.927 65.1667 148.469 65.625C148.01 66.0833 147.406 66.3125 146.656 66.3125Z" fill="white"/>
<path d="M30.2036 67.6448L19.3105 61.7727L36.4372 30.0011L24.994 23.8326L30.1097 14.3423L63.8894 32.5516L58.7736 42.0418L47.3303 35.8732L30.2036 67.6448Z" fill="#5C40C9"/>
</svg>
